<svg width="600" height="372" viewBox="0 0 600 372" fill="none" xmlns="http://www.w3.org/2000/svg">
<rect width="600" height="372" fill="white"/>
<rect x="11" y="13" width="31" height="31" fill="#EAEAEA"/>
<rect x="50" y="13" width="31" height="31" fill="#EAEAEA"/>
<rect x="89" y="13" width="31" height="31" fill="#EAEAEA"/>
<rect x="128" y="13" width="31" height="31" fill="#EAEAEA"/>
<rect x="167" y="13" width="31" height="31" fill="#EAEAEA"/>
<rect x="206" y="13" width="31" height="31" fill="#EAEAEA"/>
<rect x="245" y="13" width="31" height="31" fill="#EAEAEA"/>
<rect x="284" y="13" width="31" height="31" fill="#EAEAEA"/>
<rect x="323" y="13" width="31" height="31" fill="#EAEAEA"/>
<rect x="362" y="13" width="31" height="31" fill="#EAEAEA"/>
<rect x="401" y="13" width="31" height="31" fill="#EAEAEA"/>
<rect x="440" y="13" width="31" height="31" fill="#EAEAEA"/>
<rect x="479" y="13" width="31" height="31" fill="#EAEAEA"/>
<rect x="518" y="13" width="31" height="31" fill="#EAEAEA"/>
<rect x="557" y="13" width="31" height="31" fill="#EAEAEA"/>
<rect x="11" y="52" width="31" height="31" fill="#EAEAEA"/>
<rect x="50" y="52" width="31" height="31" fill="#EAEAEA"/>
<rect x="89" y="52" width="31" height="31" fill="#EAEAEA"/>
<rect x="128" y="52" width="31" height="31" fill="#EAEAEA"/>
<rect x="167" y="52" width="31" height="31" fill="#EAEAEA"/>
<rect x="206" y="52" width="31" height="31" fill="#EAEAEA"/>
<rect x="245" y="52" width="31" height="31" fill="#EAEAEA"/>
<rect x="284" y="52" width="31" height="31" fill="#EAEAEA"/>
<rect x="323" y="52" width="31" height="31" fill="#EAEAEA"/>
<rect x="362" y="52" width="31" height="31" fill="#EAEAEA"/>
<rect x="401" y="52" width="31" height="31" fill="#EAEAEA"/>
<rect x="440" y="52" width="31" height="31" fill="#44C5B8"/>
<rect x="479" y="52" width="31" height="31" fill="#EAEAEA"/>
<rect x="518" y="52" width="31" height="31" fill="#EAEAEA"/>
<rect x="557" y="52" width="31" height="31" fill="#EAEAEA"/>
<rect x="11" y="91" width="31" height="31" fill="#EAEAEA"/>
<rect x="50" y="91" width="31" height="31" fill="#EAEAEA"/>
<rect x="89" y="91" width="31" height="31" fill="#EAEAEA"/>
<rect x="128" y="91" width="31" height="31" fill="#EAEAEA"/>
<rect x="167" y="91" width="31" height="31" fill="#EAEAEA"/>
<rect x="206" y="91" width="31" height="31" fill="#EAEAEA"/>
<rect x="245" y="91" width="31" height="31" fill="#EAEAEA"/>
<rect x="284" y="91" width="31" height="31" fill="#44C5B8"/>
<rect x="323" y="91" width="31" height="31" fill="#EAEAEA"/>
<rect x="362" y="91" width="31" height="31" fill="#EAEAEA"/>
<rect x="401" y="91" width="31" height="31" fill="#44C5B8"/>
<rect x="440" y="91" width="31" height="31" fill="#44C5B8"/>
<rect x="479" y="91" width="31" height="31" fill="#44C5B8"/>
<rect x="518" y="91" width="31" height="31" fill="#EAEAEA"/>
<rect x="557" y="91" width="31" height="31" fill="#EAEAEA"/>
<rect x="11" y="130" width="31" height="31" fill="#EAEAEA"/>
<rect x="50" y="130" width="31" height="31" fill="#EAEAEA"/>
<rect x="89" y="130" width="31" height="31" fill="#EAEAEA"/>
<rect x="128" y="130" width="31" height="31" fill="#EAEAEA"/>
<rect x="167" y="130" width="31" height="31" fill="#EAEAEA"/>
<rect x="206" y="130" width="31" height="31" fill="#EAEAEA"/>
<rect x="245" y="130" width="31" height="31" fill="#44C5B8"/>
<rect x="284" y="130" width="31" height="31" fill="#EAEAEA"/>
<rect x="323" y="130" width="31" height="31" fill="#44C5B8"/>
<rect x="362" y="130" width="31" height="31" fill="#EAEAEA"/>
<rect x="401" y="130" width="31" height="31" fill="#EAEAEA"/>
<rect x="440" y="130" width="31" height="31" fill="#44C5B8"/>
<rect x="479" y="130" width="31" height="31" fill="#EAEAEA"/>
<rect x="518" y="130" width="31" height="31" fill="#EAEAEA"/>
<rect x="557" y="130" width="31" height="31" fill="#EAEAEA"/>
<rect x="11" y="169" width="31" height="31" fill="#EAEAEA"/>
<rect x="50" y="169" width="31" height="31" fill="#EAEAEA"/>
<rect x="89" y="169" width="31" height="31" fill="#EAEAEA"/>
<rect x="128" y="169" width="31" height="31" fill="#EAEAEA"/>
<rect x="167" y="169" width="31" height="31" fill="#EAEAEA"/>
<rect x="206" y="169" width="31" height="31" fill="#44C5B8"/>
<rect x="245" y="169" width="31" height="31" fill="#EAEAEA"/>
<rect x="284" y="169" width="31" height="31" fill="#EAEAEA"/>
<rect x="323" y="169" width="31" height="31" fill="#EAEAEA"/>
<rect x="362" y="169" width="31" height="31" fill="#44C5B8"/>
<rect x="401" y="169" width="31" height="31" fill="#EAEAEA"/>
<rect x="440" y="169" width="31" height="31" fill="#EAEAEA"/>
<rect x="479" y="169" width="31" height="31" fill="#EAEAEA"/>
<rect x="518" y="169" width="31" height="31" fill="#EAEAEA"/>
<rect x="557" y="169" width="31" height="31" fill="#EAEAEA"/>
<rect x="11" y="208" width="31" height="31" fill="#EAEAEA"/>
<rect x="50" y="208" width="31" height="31" fill="#EAEAEA"/>
<rect x="89" y="208" width="31" height="31" fill="#EAEAEA"/>
<rect x="128" y="208" width="31" height="31" fill="#EAEAEA"/>
<rect x="167" y="208" width="31" height="31" fill="#EAEAEA"/>
<rect x="206" y="208" width="31" height="31" fill="#44C5B8"/>
<rect x="245" y="208" width="31" height="31" fill="#44C5B8"/>
<rect x="284" y="208" width="31" height="31" fill="#44C5B8"/>
<rect x="323" y="208" width="31" height="31" fill="#44C5B8"/>
<rect x="362" y="208" width="31" height="31" fill="#44C5B8"/>
<rect x="401" y="208" width="31" height="31" fill="#EAEAEA"/>
<rect x="440" y="208" width="31" height="31" fill="#EAEAEA"/>
<rect x="479" y="208" width="31" height="31" fill="#EAEAEA"/>
<rect x="518" y="208" width="31" height="31" fill="#EAEAEA"/>
<rect x="557" y="208" width="31" height="31" fill="#EAEAEA"/>
<rect x="11" y="247" width="31" height="31" fill="#EAEAEA"/>
<rect x="50" y="247" width="31" height="31" fill="#EAEAEA"/>
<rect x="89" y="247" width="31" height="31" fill="#EAEAEA"/>
<rect x="128" y="247" width="31" height="31" fill="#EAEAEA"/>
<rect x="167" y="247" width="31" height="31" fill="#EAEAEA"/>
<rect x="206" y="247" width="31" height="31" fill="#44C5B8"/>
<rect x="245" y="247" width="31" height="31" fill="#EAEAEA"/>
<rect x="284" y="247" width="31" height="31" fill="#EAEAEA"/>
<rect x="323" y="247" width="31" height="31" fill="#EAEAEA"/>
<rect x="362" y="247" width="31" height="31" fill="#44C5B8"/>
<rect x="401" y="247" width="31" height="31" fill="#EAEAEA"/>
<rect x="440" y="247" width="31" height="31" fill="#EAEAEA"/>
<rect x="479" y="247" width="31" height="31" fill="#EAEAEA"/>
<rect x="518" y="247" width="31" height="31" fill="#EAEAEA"/>
<rect x="557" y="247" width="31" height="31" fill="#EAEAEA"/>
<rect x="11" y="286" width="31" height="31" fill="#EAEAEA"/>
<rect x="50" y="286" width="31" height="31" fill="#EAEAEA"/>
<rect x="89" y="286" width="31" height="31" fill="#EAEAEA"/>
<rect x="128" y="286" width="31" height="31" fill="#EAEAEA"/>
<rect x="167" y="286" width="31" height="31" fill="#EAEAEA"/>
<rect x="206" y="286" width="31" height="31" fill="#44C5B8"/>
<rect x="245" y="286" width="31" height="31" fill="#EAEAEA"/>
<rect x="284" y="286" width="31" height="31" fill="#EAEAEA"/>
<rect x="323" y="286" width="31" height="31" fill="#EAEAEA"/>
<rect x="362" y="286" width="31" height="31" fill="#44C5B8"/>
<rect x="401" y="286" width="31" height="31" fill="#EAEAEA"/>
<rect x="440" y="286" width="31" height="31" fill="#EAEAEA"/>
<rect x="479" y="286" width="31" height="31" fill="#EAEAEA"/>
<rect x="518" y="286" width="31" height="31" fill="#EAEAEA"/>
<rect x="557" y="286" width="31" height="31" fill="#EAEAEA"/>
<rect x="11" y="325" width="31" height="31" fill="#EAEAEA"/>
<rect x="50" y="325" width="31" height="31" fill="#EAEAEA"/>
<rect x="89" y="325" width="31" height="31" fill="#EAEAEA"/>
<rect x="128" y="325" width="31" height="31" fill="#EAEAEA"/>
<rect x="167" y="325" width="31" height="31" fill="#EAEAEA"/>
<rect x="206" y="325" width="31" height="31" fill="#EAEAEA"/>
<rect x="245" y="325" width="31" height="31" fill="#EAEAEA"/>
<rect x="284" y="325" width="31" height="31" fill="#EAEAEA"/>
<rect x="323" y="325" width="31" height="31" fill="#EAEAEA"/>
<rect x="362" y="325" width="31" height="31" fill="#EAEAEA"/>
<rect x="401" y="325" width="31" height="31" fill="#EAEAEA"/>
<rect x="440" y="325" width="31" height="31" fill="#EAEAEA"/>
<rect x="479" y="325" width="31" height="31" fill="#EAEAEA"/>
<rect x="518" y="325" width="31" height="31" fill="#EAEAEA"/>
<rect x="557" y="325" width="31" height="31" fill="#EAEAEA"/>
</svg>
